<svg width="1024" height="1024" viewBox="0 0 1024 1024" fill="none" xmlns="http://www.w3.org/2000/svg">
<rect width="1024" height="1024" rx="255" fill="#151618"/>
<path d="M529 112C647.171 112 753.374 163.244 826.599 244.723L771.144 295.222C711.637 228.797 625.2 187 529 187C349.507 187 204 332.507 204 512C204 691.493 349.507 837 529 837C626.977 837 714.827 793.644 774.413 725.072L824.905 781.149C751.741 861.54 646.264 912 529 912C308.086 912 129 732.914 129 512C129 291.086 308.086 112 529 112Z" fill="#E0C341"/>
<rect x="524" y="314" width="15" height="450" rx="5" fill="#E0C341"/>
<path d="M532 249H547C549.761 249 552 251.239 552 254V272.246C552 273.381 551.614 274.483 550.904 275.37L535.904 294.12C533.903 296.622 530.097 296.622 528.096 294.12L513.096 275.37C512.386 274.483 512 273.381 512 272.246V254C512 251.239 514.239 249 517 249H532Z" fill="#E0C341"/>
<rect x="575" y="404" width="250" height="20" rx="10" fill="#4C4D4F"/>
<rect x="575" y="694" width="100" height="20" rx="10" fill="#4C4D4F"/>
<rect x="376" y="694" width="100" height="20" rx="10" fill="#4C4D4F"/>
<rect x="251" y="502" width="50" height="20" rx="10" fill="#4C4D4F"/>
<rect x="608" y="499" width="250" height="20" rx="10" fill="#4C4D4F"/>
<rect x="576" y="599" width="250" height="20" rx="10" fill="#4C4D4F"/>
<rect x="576" y="309" width="100" height="20" rx="10" fill="#4C4D4F"/>
<rect x="376" y="309" width="100" height="20" rx="10" fill="#4C4D4F"/>
<rect x="328" y="499" width="120" height="20" rx="10" fill="#E0C341"/>
<rect x="276" y="599" width="200" height="20" rx="10" fill="#4C4D4F"/>
<rect x="276" y="404" width="200" height="20" rx="10" fill="#4C4D4F"/>
</svg>
